<svg xmlns="http://www.w3.org/2000/svg" xmlns:xlink="http://www.w3.org/1999/xlink" viewBox="0 0 965.51 510.86"><defs><style>.cls-1{fill:url(#linear-gradient);}.cls-2{fill:url(#linear-gradient-2);}.cls-3{fill:url(#linear-gradient-3);}.cls-4{fill:url(#linear-gradient-4);}.cls-5{fill:url(#linear-gradient-5);}.cls-6{fill:url(#linear-gradient-6);}.cls-7{fill:url(#linear-gradient-7);}.cls-8{fill:url(#linear-gradient-8);}.cls-9{fill:url(#linear-gradient-9);}.cls-10{fill:url(#linear-gradient-10);}</style><linearGradient id="linear-gradient" x1="-123.91" y1="472.58" x2="1224.81" y2="479.5" gradientUnits="userSpaceOnUse"><stop offset="0" stop-color="#f2dfc3"/><stop offset="0.42" stop-color="#d3a24f"/><stop offset="1" stop-color="#c28710"/></linearGradient><linearGradient id="linear-gradient-2" x1="545.36" y1="252.13" x2="129.19" y2="365.34" xlink:href="#linear-gradient"/><linearGradient id="linear-gradient-3" x1="531.9" y1="202.65" x2="115.73" y2="315.86" xlink:href="#linear-gradient"/><linearGradient id="linear-gradient-4" x1="464.95" y1="-43.44" x2="48.79" y2="69.77" xlink:href="#linear-gradient"/><linearGradient id="linear-gradient-5" x1="515.69" y1="143.06" x2="99.53" y2="256.27" xlink:href="#linear-gradient"/><linearGradient id="linear-gradient-6" x1="498.51" y1="79.93" x2="82.35" y2="193.13" xlink:href="#linear-gradient"/><linearGradient id="linear-gradient-7" x1="480.48" y1="13.65" x2="64.32" y2="126.86" xlink:href="#linear-gradient"/><linearGradient id="linear-gradient-8" x1="-5.92" y1="209.45" x2="185.71" y2="201.78" gradientUnits="userSpaceOnUse"><stop offset="0.01" stop-color="#1d89c1"/><stop offset="0.4" stop-color="#1d7cb0"/><stop offset="1" stop-color="#1c628f"/></linearGradient><linearGradient id="linear-gradient-9" x1="428.75" y1="194.66" x2="433.18" y2="194.66" gradientUnits="userSpaceOnUse"><stop offset="0.01" stop-color="#ebc17d"/><stop offset="0.45" stop-color="#dfb77c"/><stop offset="1" stop-color="#c08329"/></linearGradient><linearGradient id="linear-gradient-10" x1="437.24" y1="-73.86" x2="1000.8" y2="453.34" xlink:href="#linear-gradient"/></defs><g id="Layer_1" data-name="Layer 1"><path class="cls-1" d="M390.91,509.39a4,4,0,0,1-3.38-1.7,3.83,3.83,0,0,1,0-3.95,14.56,14.56,0,0,1,4.4-4.75,40.62,40.62,0,0,1,8.39-4.62,71.89,71.89,0,0,1,11.62-3.71l.33-.08.2-.26c.26-.33,1.12-1.33,2.58-3s3.23-3.68,5.22-6L419,480.11a58.41,58.41,0,0,1-6.44,3.92,44.54,44.54,0,0,1-5.94,2.64,19.48,19.48,0,0,1-4.81,1.13c-.3,0-.58,0-.85,0a5,5,0,0,1-2.2-.42,2.63,2.63,0,0,1-1.27-1.53,5,5,0,0,1-.05-2.73,11.71,11.71,0,0,1,1.57-3.65,19.75,19.75,0,0,1,3.48-4.06l-1.15-1.35-3.8,2.44-2,1.25c-.34.21-.59.34-.84.48l-.4.24a95.46,95.46,0,0,1-14,7.44,36.84,36.84,0,0,1-9.68,2.74q-.93.09-1.77.09A7.91,7.91,0,0,1,365,488a4.5,4.5,0,0,1-2.28-3.08,7.81,7.81,0,0,1-.09-2.2l.14-1.64-1.52.81c-1.23.65-2.51,1.31-3.89,2-2,.95-4,1.85-6,2.67a37.08,37.08,0,0,1-5.84,1.87,18.56,18.56,0,0,1-4.18.52l-.83,0a4.7,4.7,0,0,1-3.19-1.28,5,5,0,0,1-1.51-3.11,10.92,10.92,0,0,1,.55-4.9l.82-2.58-2.27,1.64c-2.63,1.89-5.3,3.65-7.95,5.23a47.32,47.32,0,0,1-7.49,3.69,20,20,0,0,1-6.15,1.42h0a4.65,4.65,0,0,1-3.73-1.37,3.37,3.37,0,0,1-.95-2.41,9.44,9.44,0,0,1,.58-3.19,14,14,0,0,1,1.55-3.06,13.7,13.7,0,0,1,1.75-2.18l-1.17-1.34-2.74,1.74c-.88.56-1.7,1.05-2.47,1.49l-.33.15c-1.26.8-2.74,1.71-4.49,2.73s-3.79,2.13-5.82,3.15-4.15,1.95-6.26,2.77a28.78,28.78,0,0,1-6,1.64,15.13,15.13,0,0,1-2.26.18,10.65,10.65,0,0,1-2.6-.31,4.94,4.94,0,0,1-3.09-2.33,4.55,4.55,0,0,1-.66-3.2,10.1,10.1,0,0,1,1.37-3.65,21.8,21.8,0,0,1,2.78-3.61,42.51,42.51,0,0,1,3.45-3.21q1.75-1.44,3.3-2.49a24.69,24.69,0,0,1,2.32-1.46l.69-.35-.25-.69a1.34,1.34,0,0,0-1.42-.82,8.61,8.61,0,0,0-1.36.13l-1.66.21a8.69,8.69,0,0,1-1,.06l-.73,0-.58-.05-.29.48a24.53,24.53,0,0,1-4.81,5.48,41.63,41.63,0,0,1-7.39,5.21,4.88,4.88,0,0,1-2.38.69,2.65,2.65,0,0,1-1.84-.55c-.11-.1-.37-.36-.11-1.12.15-.44.69-1.17,2.4-2.19a27.29,27.29,0,0,0,2.61-1.71c.93-.67,1.86-1.38,2.81-2.12s1.88-1.52,2.78-2.33a25.51,25.51,0,0,0,2.44-2.44l1.22-1.42h-1.51A7.45,7.45,0,0,1,276,463a4.35,4.35,0,0,1-.11-2.43,3,3,0,0,1,1.19-1.67,4.2,4.2,0,0,1,2.49-.67,2.22,2.22,0,0,1,1.48.39,5.42,5.42,0,0,1,1,1.2l.86,1.42a2.25,2.25,0,0,0,2,1.05,41.2,41.2,0,0,0,4.65-.3c1.74-.2,3.63-.47,5.69-.82a7.55,7.55,0,0,1,1.21-.11,3.63,3.63,0,0,1,1.73.38,2.74,2.74,0,0,1,1.38,1.5,2.93,2.93,0,0,1-.14,2.12,4.41,4.41,0,0,1-2,2c-.95.55-2,1.23-3.22,2s-2.39,1.64-3.6,2.53-2.38,1.82-3.49,2.77a31.62,31.62,0,0,0-2.91,2.78,9.93,9.93,0,0,0-1.79,2.59,2.19,2.19,0,0,0,.24,2.57,3.65,3.65,0,0,0,2.83,1.08,7.91,7.91,0,0,0,1.14-.09,22.79,22.79,0,0,0,5.27-1.58c1.91-.79,4-1.75,6.11-2.87s4.19-2.28,6-3.39c.5-.29,1.32-.75,2.42-1.4s2.35-1.34,3.78-2.13,3-1.64,4.58-2.55,3.2-1.83,4.73-2.74,2.91-1.77,4.16-2.56A33,33,0,0,0,326.8,462a8.17,8.17,0,0,1,3.51-1.62,12.68,12.68,0,0,1,2.54-.29,8.42,8.42,0,0,1,1.15.08,3,3,0,0,1,2,.89c.28.34-.14,1-.54,1.43a23.93,23.93,0,0,1-2.65,2.56q-1.86,1.62-4.13,3.49t-4.59,3.85c-1.55,1.32-2.94,2.56-4.15,3.73a27.47,27.47,0,0,0-2.87,3.13c-1.17,1.53-.85,2.46-.38,3a1.65,1.65,0,0,0,1.34.55,5.44,5.44,0,0,0,2.09-.55,42.2,42.2,0,0,0,4.74-2.53c1.84-1.12,3.87-2.44,6.11-4s4.47-3.08,6.74-4.65l6.62-4.62c2.13-1.49,4-2.78,5.76-3.85a10.29,10.29,0,0,1,4.57-2.12,13,13,0,0,1,2-.17,6.57,6.57,0,0,1,1.8.22c1,.3,1.25.74,1.32,1.05s-.42,1-1.4,1.73a70.18,70.18,0,0,0-6.92,5.54,50.92,50.92,0,0,0-5.1,5.34,17.33,17.33,0,0,0-2.8,4.56c-.6,1.61-.47,2.8.41,3.55a3.16,3.16,0,0,0,2.12.65,8.93,8.93,0,0,0,2-.26,38,38,0,0,0,5.54-1.78c2-.79,4.06-1.71,6.14-2.72s3.81-1.89,5.23-2.64l.26-.12.17-.25.24-.41c.35-.61.7-1.23,1.14-1.86a160.33,160.33,0,0,1,13.82-17.4,80.74,80.74,0,0,1,11.22-10.22c3.18-2.26,5.88-3.61,8-4a9.42,9.42,0,0,1,1.6-.16,3.56,3.56,0,0,1,2.64.91c.39.41.87,1.16.27,2.67a16.3,16.3,0,0,1-3,4.58,68.41,68.41,0,0,1-5.72,5.65c-2.29,2-4.71,4.08-7.21,6.1s-5.06,4.05-7.59,6-4.82,3.84-6.86,5.51a25.62,25.62,0,0,0-3.31,5.32c-.78,1.8-.71,3.15.21,4a4.13,4.13,0,0,0,2.95,1,8.58,8.58,0,0,0,1.6-.16A29.9,29.9,0,0,0,381.1,481a61.61,61.61,0,0,0,6-2.85l4.88-2.62c.55-.31,1.37-.77,2.47-1.42s2.35-1.34,3.78-2.13,3-1.64,4.58-2.55,3.2-1.83,4.73-2.74,2.91-1.77,4.16-2.56a34.43,34.43,0,0,0,3.07-2.13,8.12,8.12,0,0,1,3.51-1.62,12.61,12.61,0,0,1,2.54-.29,8.42,8.42,0,0,1,1.15.08,3,3,0,0,1,2,.89c.27.34-.14,1-.54,1.43a21.56,21.56,0,0,1-2.67,2.51q-1.92,1.59-4.14,3.39c-1.49,1.21-3,2.42-4.54,3.65a49.8,49.8,0,0,0-4,3.5,13,13,0,0,0-2.35,2.9,1.85,1.85,0,0,0-.16,1.7,1.76,1.76,0,0,0,1.25.93,3,3,0,0,0,.87.12,7.58,7.58,0,0,0,2.85-.71,31.48,31.48,0,0,0,4.65-2.55c1.68-1.09,3.5-2.35,5.44-3.76l5.88-4.28c2-1.45,3.93-2.83,5.85-4.16s3.67-2.41,5.24-3.27a8.84,8.84,0,0,1,3.29-1.07,10.71,10.71,0,0,1,1.35-.08,7.61,7.61,0,0,1,1.65.17,2.5,2.5,0,0,1,1.42.73h0s0,.18-.47.54a51.19,51.19,0,0,0-4.19,3.9c-1.65,1.68-3.42,3.55-5.3,5.59s-3.8,4.16-5.73,6.32-3.71,4.2-5.33,6.07l1.11,1.34L434,482c1.17-.48,2.49-1,3.91-1.69s2.77-1.29,4-1.94l3.4-1.74c1.05-.53,1.78-.92,2.21-1.17a6.13,6.13,0,0,1,2.76-.75,2.08,2.08,0,0,1,1.54.45c.09.09.34.35.05,1.12-.17.45-.73,1.24-2.41,2.39-.56.38-1.34.86-2.33,1.44s-2.17,1.23-3.47,1.94-2.68,1.41-4.17,2.12-3,1.37-4.58,2L416.31,494l-.14.15a60.3,60.3,0,0,1-9.79,9,42.47,42.47,0,0,1-8.84,5,17.19,17.19,0,0,1-6,1.33Q391.24,509.42,390.91,509.39Zm106.29-5.87a26.5,26.5,0,0,1-5.83-.6,15.77,15.77,0,0,1-8.14-4.24,10.34,10.34,0,0,1-3-6.9,14.16,14.16,0,0,1,2.79-8.33c2-2.95,5.24-5.75,9.68-8.32a9.94,9.94,0,0,1,3.4-1.29,10.51,10.51,0,0,1,1.73-.14,8.62,8.62,0,0,1,1.36.1,6.4,6.4,0,0,1,2.32.8,2.53,2.53,0,0,1,1.09,1.13,1.17,1.17,0,0,1-.11,1,3.73,3.73,0,0,1-1.8,1.24,29.87,29.87,0,0,0-9.41,5.72,12.45,12.45,0,0,0-3.85,6.18A6.14,6.14,0,0,0,489,495.4a10.28,10.28,0,0,0,6.32,2.92,18.9,18.9,0,0,0,2.57.17,33.43,33.43,0,0,0,7.35-1,51.91,51.91,0,0,0,13-5.42,50,50,0,0,0,8.66-6,25.94,25.94,0,0,0,5.19-6,9.76,9.76,0,0,0,1.6-5.37,5,5,0,0,0-2.4-4.08,11,11,0,0,0-6-1.37A32.6,32.6,0,0,0,516.2,471a23.34,23.34,0,0,1-6.59,1.19,10.68,10.68,0,0,1-1.3-.08,5.6,5.6,0,0,1-3.95-1.86,5.17,5.17,0,0,1-.78-4.06,14.87,14.87,0,0,1,2.49-5.82,32.85,32.85,0,0,1,5.95-6.46,48.65,48.65,0,0,1,9.3-6.12,45.09,45.09,0,0,1,11.95-4.41,27.45,27.45,0,0,1,5-.5,15.13,15.13,0,0,1,3.37.34,8.59,8.59,0,0,1,4.82,2.65,6.46,6.46,0,0,1,1.64,4.2,8.1,8.1,0,0,1-1.57,4.68,12.86,12.86,0,0,1-4.95,4.06,11.39,11.39,0,0,1-4.7,1.31h-.36a5.47,5.47,0,0,1-3-.87c-.68-.53-.69-1-.63-1.32s.64-.84,1.64-1.13a9.28,9.28,0,0,0,3.49-1.82,4.64,4.64,0,0,0,1.65-2.55,2.91,2.91,0,0,0-.76-2.57,4.56,4.56,0,0,0-3.22-1.22l-.51,0a18.63,18.63,0,0,0-4.63.75,36.75,36.75,0,0,0-7.32,3.11,41.32,41.32,0,0,0-7.6,5,18.74,18.74,0,0,0-4.31,4.71,3,3,0,0,0-.46,2.47,2.19,2.19,0,0,0,1.21,1.26,3.53,3.53,0,0,0,1.51.29,17.33,17.33,0,0,0,5.26-1.21,27,27,0,0,1,8.67-1.62c.6,0,1.18,0,1.75.08a14.16,14.16,0,0,1,7.35,2.61,9.83,9.83,0,0,1,3.6,5.61,12.82,12.82,0,0,1-.79,7.67,27.48,27.48,0,0,1-6.16,8.82,49.06,49.06,0,0,1-12.45,8.77,57.08,57.08,0,0,1-16.67,6A44.1,44.1,0,0,1,497.2,503.52Zm-273.66-.07a6.49,6.49,0,0,1-3.32-1.3,3.58,3.58,0,0,1-1.4-3.11,16.11,16.11,0,0,1,2.17-7.36A60.13,60.13,0,0,1,226.7,483a110.81,110.81,0,0,1,7.85-8.93c2.94-3,5.83-5.85,8.58-8.42s5.41-5,7.84-7,4.32-3.66,5.67-4.79a7.91,7.91,0,0,1,3.67-1.79,9.94,9.94,0,0,1,1.73-.16,5.69,5.69,0,0,1,1.49.18,2,2,0,0,1,1.37.89c.11.23-.09.55-.61,1-1.69,1.29-3.79,3.1-6.44,5.54s-5.34,5.07-8.21,8-5.79,6.06-8.65,9.3-5.45,6.42-7.65,9.4a55.61,55.61,0,0,0-5.17,8.29c-1.3,2.67-1.7,4.78-1.22,6.43.33,1.22-.11,1.69-.53,2a4.21,4.21,0,0,1-2.3.62Zm375.71-14.17a10.65,10.65,0,0,1-2.6-.31,4.94,4.94,0,0,1-3.09-2.33,4.55,4.55,0,0,1-.67-3.2,10.32,10.32,0,0,1,1.38-3.65,21.27,21.27,0,0,1,2.78-3.61A42.51,42.51,0,0,1,600.5,473q1.75-1.44,3.3-2.49a23.34,23.34,0,0,1,2.33-1.46l.68-.35-.25-.69a1.35,1.35,0,0,0-1.43-.82,8.71,8.71,0,0,0-1.35.13l-1.66.21a8.69,8.69,0,0,1-1,.06l-.73,0-.58-.05-.29.48a24.78,24.78,0,0,1-4.81,5.48,40.53,40.53,0,0,1-5.86,4.25,10.86,10.86,0,0,1-1.44.95,101.82,101.82,0,0,1-15.79,7.05,53.45,53.45,0,0,1-11.83,2.73c-.85.07-1.66.11-2.42.11a14.42,14.42,0,0,1-5.32-.86,7,7,0,0,1-3.87-3.19,7.38,7.38,0,0,1-.44-5.06,18.16,18.16,0,0,1,3.15-6.55,33.15,33.15,0,0,1,7.88-8.13,25.35,25.35,0,0,1,7.77-3.81,15.14,15.14,0,0,1,3.83-.54,9.91,9.91,0,0,1,2.42.28,5.72,5.72,0,0,1,3.64,2.28,5.07,5.07,0,0,1,.88,3,7.89,7.89,0,0,1-1,3.7,13.68,13.68,0,0,1-3.32,3.84,19.93,19.93,0,0,1-5.87,3.24,10.83,10.83,0,0,1-3.48.79h0a7.76,7.76,0,0,1-2.61-.36,4.53,4.53,0,0,1-1.76-1,4.89,4.89,0,0,1-1-1.44l-.61-1.38-1,1.18a16.17,16.17,0,0,0-2.52,4,3.36,3.36,0,0,0,.25,3.67c.89,1.17,2.54,1.78,4.89,1.78h.49a37.15,37.15,0,0,0,8-1.28,77.72,77.72,0,0,0,9.17-3.07,66.16,66.16,0,0,0,8.46-4.09,26.15,26.15,0,0,0,2.62-1.71c.93-.67,1.86-1.38,2.81-2.12s1.88-1.53,2.78-2.33a25.51,25.51,0,0,0,2.44-2.44l1.22-1.42h-1.5a7.31,7.31,0,0,1-1.35-2.5,4.35,4.35,0,0,1-.11-2.43,3,3,0,0,1,1.19-1.67,4.2,4.2,0,0,1,2.49-.67,2.22,2.22,0,0,1,1.48.39,5.42,5.42,0,0,1,1,1.2l.86,1.42a2.25,2.25,0,0,0,2,1.05,41.2,41.2,0,0,0,4.65-.3c1.74-.2,3.63-.47,5.69-.82a7.55,7.55,0,0,1,1.21-.11,3.63,3.63,0,0,1,1.73.38,2.74,2.74,0,0,1,1.38,1.5,2.93,2.93,0,0,1-.14,2.12,4.41,4.41,0,0,1-2,2c-.95.55-2,1.23-3.22,2s-2.39,1.64-3.6,2.53-2.38,1.82-3.49,2.77a31.62,31.62,0,0,0-2.91,2.78,9.93,9.93,0,0,0-1.79,2.59,2.19,2.19,0,0,0,.24,2.57,3.65,3.65,0,0,0,2.83,1.08,7.91,7.91,0,0,0,1.14-.09,22.79,22.79,0,0,0,5.27-1.58c1.91-.79,4-1.75,6.11-2.87s4.14-2.25,6-3.39c.51-.29,1.33-.75,2.43-1.4s2.35-1.34,3.77-2.13,3-1.64,4.59-2.55,3.2-1.83,4.73-2.74l4.19-2.55A29.78,29.78,0,0,0,645.2,462a7.9,7.9,0,0,1,3.5-1.58,13.64,13.64,0,0,1,2.51-.26,8.25,8.25,0,0,1,1.24.08,3,3,0,0,1,1.95.85c.27.34-.31,1.09-.57,1.4Q651.49,465,649,468c-1.65,2-3.12,3.91-4.37,5.76a25.61,25.61,0,0,0-2.75,5.12c-.67,1.8-.54,3.19.39,4.13a2.22,2.22,0,0,0,1.69.62,6.53,6.53,0,0,0,1.9-.34,29.63,29.63,0,0,0,4.86-2.14c1.83-1,3.81-2.17,5.88-3.55s4.07-2.86,6-4.41l.43-.35-.13-.52a11.07,11.07,0,0,1-.26-4.78,9.87,9.87,0,0,1,1.5-3.84,8,8,0,0,1,2.79-2.52,7.39,7.39,0,0,1,3.68-.92,5.84,5.84,0,0,1,3.33.83,3.6,3.6,0,0,1,1.53,2.06,5.46,5.46,0,0,1-.08,3,8.05,8.05,0,0,1-1.73,3.13q-.85.94-1.71,1.86c-.56.61-1.15,1.2-1.76,1.77l-.75.71.85.61a13.37,13.37,0,0,0,2.28,1.27,11.78,11.78,0,0,0,2.69.81,12.21,12.21,0,0,0,1.91.16c.32,0,.64,0,1,0a7,7,0,0,0,2.9-.9c.63-.34,1.38-.78,2.26-1.3s4.87-2.87,6-3.51l3.09-1.84c1.17-1.18,2.23-2.21,3.36-3.26a45.61,45.61,0,0,1,3.76-3.07,11.21,11.21,0,0,1,4.54-2,11.7,11.7,0,0,1,2-.18,6.33,6.33,0,0,1,1.77.23c1,.33,1.27.78,1.34,1.09s-.42,1.05-1.4,1.73a69.91,69.91,0,0,0-6.92,5.55,52.83,52.83,0,0,0-5.13,5.33,17.19,17.19,0,0,0-2.85,4.52c-.76,2-.14,3,.52,3.55a3.18,3.18,0,0,0,2.09.62,8.93,8.93,0,0,0,2-.26,37.69,37.69,0,0,0,5.58-1.82q3-1.23,6.17-2.71c2.07-1,3.82-1.86,5.24-2.61l.26-.13.17-.27a27,27,0,0,1,4.35-6.13,30.94,30.94,0,0,1,7.19-5.59,24.29,24.29,0,0,1,8.85-3,12.75,12.75,0,0,1,1.81-.13,9.12,9.12,0,0,1,2.59.35,5.42,5.42,0,0,1,2.73,1.67,3.84,3.84,0,0,1,.82,2.75,7.51,7.51,0,0,1-1.5,3.84,6.83,6.83,0,0,1-2.16,2.05,7.28,7.28,0,0,1-2.42.89,6.72,6.72,0,0,1-1.07.09,4.53,4.53,0,0,1-1.06-.12,2.77,2.77,0,0,1-1.29-.58c-.23-.22-.2-.33-.18-.41s.08-.27.92-.67a7.28,7.28,0,0,0,1.71-1.14,7.05,7.05,0,0,0,1.24-1.39,2.32,2.32,0,0,0,.45-1.64c0-.27-.33-1.17-1.78-1.17a10.87,10.87,0,0,0-4.91,1.36,25.78,25.78,0,0,0-4.84,3.3,33.79,33.79,0,0,0-4.14,4.24,17.46,17.46,0,0,0-2.71,4.36,4.84,4.84,0,0,0-.23,3.82c.52,1.19,1.81,1.79,3.83,1.79a22.23,22.23,0,0,0,5.58-.88c2.13-.58,4.32-1.3,6.51-2.14s4.35-1.72,6.43-2.63,3.81-1.76,5.2-2.51l.23-.13.13-.22a22.51,22.51,0,0,1,1.44-2.28,32.8,32.8,0,0,1,7.88-8.13,25.25,25.25,0,0,1,7.77-3.81,15.08,15.08,0,0,1,3.83-.54,10,10,0,0,1,2.42.28A5.73,5.73,0,0,1,774,463a5.07,5.07,0,0,1,.88,3,7.77,7.77,0,0,1-1,3.7,13.63,13.63,0,0,1-3.31,3.84,20.12,20.12,0,0,1-5.88,3.24,10.77,10.77,0,0,1-3.48.79h0a7.66,7.66,0,0,1-2.6-.36,4.39,4.39,0,0,1-1.76-1,4.71,4.71,0,0,1-1-1.44l-.61-1.38-1,1.18a16.79,16.79,0,0,0-2.52,4,3.38,3.38,0,0,0,.25,3.67c.89,1.17,2.54,1.78,4.89,1.78h.49a37.23,37.23,0,0,0,8-1.28,78.21,78.21,0,0,0,9.16-3.07,65.51,65.51,0,0,0,8.46-4.09,5.28,5.28,0,0,1,2.59-.84c1,.08,1.55.29,1.81.64.08.11.34.46,0,1.31a5.07,5.07,0,0,1-2.34,2,101.34,101.34,0,0,1-15.78,7.05,53.65,53.65,0,0,1-11.84,2.73c-.85.07-1.65.11-2.42.11a14.49,14.49,0,0,1-5.32-.86,7,7,0,0,1-3.87-3.19,6.16,6.16,0,0,1-.65-2.34l-.11-1.37-1.27.68c-2,1.08-4.25,2.13-6.62,3.13a66.44,66.44,0,0,1-8,2.76,29.8,29.8,0,0,1-7.92,1.15c-3,0-5.13-.6-6.4-1.78a6.06,6.06,0,0,1-2-4.51l0-1.48-1.36.75c-1.45.81-3,1.62-4.65,2.43-2,1-4,1.86-6,2.66a35.47,35.47,0,0,1-5.87,1.84,20.82,20.82,0,0,1-4.36.51h-.68a4.6,4.6,0,0,1-3.17-1.25,4.9,4.9,0,0,1-1.55-3.39,13.2,13.2,0,0,1,.9-5.48l.76-2.16-3.74,2a12.83,12.83,0,0,1-4.65,1.62,17.33,17.33,0,0,1-2.36.16,17,17,0,0,1-2.27-.15,16,16,0,0,1-4.13-1.15,12.83,12.83,0,0,1-3.14-1.86l-.6-.5-.61.49a70.52,70.52,0,0,1-9.12,6.16,55.46,55.46,0,0,1-8.89,4.1,23.91,23.91,0,0,1-7.29,1.46h0c-2,0-3.38-.45-4.28-1.38a5.71,5.71,0,0,1-1.34-2.85,11.58,11.58,0,0,1,0-4.11,18.62,18.62,0,0,1,1.42-4.55,16.39,16.39,0,0,1,2.75-4.17l-1.21-1.29-1.5,1c-.68.44-1.45.93-2.33,1.46s-5.45,3.41-5.45,3.41c-.86.53-1.61,1-2.26,1.38s-1.38.82-1.38.82l-.29.14c-1.26.8-2.75,1.71-4.5,2.73s-3.79,2.13-5.82,3.15-4.15,1.95-6.26,2.77a28.78,28.78,0,0,1-6,1.64A15.13,15.13,0,0,1,599.25,489.28ZM767,465.21a8.61,8.61,0,0,0-2.69.83,20.37,20.37,0,0,0-3,1.78,33.06,33.06,0,0,0-3.1,2.46l-.55.49.4.61a4.33,4.33,0,0,0,3.8,2,9.46,9.46,0,0,0,4.27-1,8.59,8.59,0,0,0,3.19-2.6,2.88,2.88,0,0,0,.07-3.65,2.35,2.35,0,0,0-2-.87h-.05Zm-197.65,0a8.74,8.74,0,0,0-2.7.83,20.32,20.32,0,0,0-3,1.78,33.06,33.06,0,0,0-3.1,2.46l-.55.49.39.61a4.35,4.35,0,0,0,3.81,2,9.49,9.49,0,0,0,4.27-1,8.67,8.67,0,0,0,3.19-2.6,2.89,2.89,0,0,0,.07-3.65,2.37,2.37,0,0,0-2-.87h0Zm-359.84,6.9a2.87,2.87,0,0,1-1.24-.28,3.11,3.11,0,0,1-1.57-1.9,5.06,5.06,0,0,1,.52-3.69,26.77,26.77,0,0,1,7.05-9.07,47.81,47.81,0,0,1,11.18-7,75,75,0,0,1,14.19-4.74,111.13,111.13,0,0,1,16-2.45c3.18-.25,6.43-.38,9.65-.38,2.33,0,4.67.06,7,.2A103.25,103.25,0,0,1,288.48,445a4.9,4.9,0,0,1,2.68,1.31A2.74,2.74,0,0,1,292,448a1.08,1.08,0,0,1-.58,1,1.83,1.83,0,0,1-1,.22,6,6,0,0,1-1.4-.2,74.4,74.4,0,0,0-12.73-2c-2.54-.2-5.18-.3-7.82-.3-2.28,0-4.64.07-7,.22A109.51,109.51,0,0,0,246.16,449a80.89,80.89,0,0,0-14.39,4.37A48.39,48.39,0,0,0,220,460.21a24.82,24.82,0,0,0-7.51,9.72,3.2,3.2,0,0,1-1.9,2A3.48,3.48,0,0,1,209.52,472.11Zm505.3-16.94a5.69,5.69,0,0,1-2-.35,3.71,3.71,0,0,1-2.4-2.2,3.51,3.51,0,0,1,.4-3.16,5.5,5.5,0,0,1,3.18-2.38,6.51,6.51,0,0,1,2.08-.36,5.73,5.73,0,0,1,2,.35,3.69,3.69,0,0,1,2.39,2.2,3.53,3.53,0,0,1-.4,3.17,5.47,5.47,0,0,1-3.17,2.37A6.6,6.6,0,0,1,714.82,455.17Z"/><path class="cls-2" d="M308.88,324.84H206.54l13.24,32A177.74,177.74,0,0,0,308.88,324.84Z"/><path class="cls-3" d="M344,292.36a179.21,179.21,0,0,0,21.3-32.48H179.63l13.46,32.48Z"/><path class="cls-4" d="M206.21,0A177.78,177.78,0,0,0,103.55,32.48H308.88A177.79,177.79,0,0,0,206.21,0Z"/><path class="cls-5" d="M166.18,227.39H378.09a177.71,177.71,0,0,0,6-32.48H152.72Z"/><path class="cls-6" d="M378.09,129.94H125.81l13.45,32.48H384.11A177.55,177.55,0,0,0,378.09,129.94Z"/><path class="cls-7" d="M344,65H98.9l13.45,32.48h253A179.21,179.21,0,0,0,344,65Z"/><path class="cls-8" d="M109.64,90.9,98.9,65a221.84,221.84,0,0,0-17-15.33A183.19,183.19,0,0,0,68.53,64c14.86,8,29.52,19.19,43.82,33.49Zm23.75,57.35-7.58-18.31C102.39,106.51,78,91.55,53.35,85a178.42,178.42,0,0,0-14.3,28.6c34,.42,68,16.69,100.21,48.87Zm59.7,144.11-3.81-9.19-9.65-23.3c-47.24-47.24-98.4-60.23-147.8-39A177.54,177.54,0,0,0,43.5,254.12C93.45,231.83,145.27,244.54,193.09,292.36Zm-26.91-65-5.08-12.26-8.38-20.22c-39.48-39.49-81.7-55-123.34-46.7a178.76,178.76,0,0,0-2.6,30.45c0,2.14.09,4.25.16,6.36C73.67,168.77,121.66,182.87,166.18,227.39Zm40.36,97.45c-46.33-46.33-96.42-59.71-144.93-40.22A179.85,179.85,0,0,0,87,312.39c44.64-12.83,90.23,1.93,132.67,44.32h.06Z"/><rect class="cls-9" x="428.75" y="15.98" width="4.43" height="357.35"/><path class="cls-10" d="M490.13,224.14l16.15-20.76c14.5,16.15,38.23,31.31,69.2,31.31,39.22,0,51.74-21.09,51.74-37.9,0-56.68-130.17-25.37-130.17-103.81,0-36.25,32.3-61,75.47-61,33.61,0,59.64,11.2,78.1,30.64L634.14,82.77C617.67,64.64,594.6,56.4,570.54,56.4c-26.36,0-45.15,14.17-45.15,34.94,0,49.43,130.17,21.09,130.17,103.14,0,32-21.75,64.6-81.06,64.6C536.27,259.08,508.26,244.57,490.13,224.14ZM917.47,254.2V36.56h27.35V254.2ZM685,145.38c0-67.56,49.76-113.69,113-113.69,38.88,0,65.9,18.78,83.37,43.5L858.38,88c-12.52-18.45-35.26-32-60.3-32-48.12,0-84.7,36.91-84.7,89.31,0,52.07,36.58,89.31,84.7,89.31a73.29,73.29,0,0,0,60.3-32l23.4,12.86c-18.46,25-44.82,43.5-83.7,43.5C734.8,259.08,685,212.94,685,145.38ZM522.7,357.63c-19.65,0-32.57-14-32.57-32.4,0-17.67,13.46-32.57,32.39-32.57,11,0,17.68,3,24.14,8.53l-7,8.34c-4.84-4.13-9.6-6.73-17.58-6.73-11.58,0-20.37,10.05-20.37,22.25,0,13,8.52,22.53,21.35,22.53a25.66,25.66,0,0,0,15.17-4.76V331.07H522.17v-9.61h26.74v26.39A40.1,40.1,0,0,1,522.7,357.63ZM638,356.55l-15.44-21.89H608.74v21.89h-11V293.74h28c14.44,0,23.33,7.62,23.33,19.92,0,10.41-6.2,16.69-15,19.11l17,23.78ZM624.8,303.79H608.74v21.08h16.15c7.89,0,12.92-4.12,12.92-10.59C637.81,307.37,633,303.79,624.8,303.79Zm97.41,53.84c-19.29,0-32.75-14.63-32.75-32.4s13.64-32.57,32.93-32.57,32.75,14.62,32.75,32.39S741.51,357.63,722.21,357.63Zm0-54.83c-12.47,0-21.17,10-21.17,22.25s8.88,22.44,21.35,22.44,21.18-10,21.18-22.26S734.69,302.8,722.21,302.8ZM854,329.36c0,18.75-10.59,28.18-27,28.18s-26.74-9.43-26.74-27.64V293.74h11v35.71c0,11.66,6,17.95,15.89,17.95S843,341.47,843,329.9V293.74h11Zm65.69,7H907.22v20.19h-11V293.74H921c14.63,0,23.87,8.25,23.87,21.08C944.82,329,933.51,336.36,919.7,336.36Zm.36-32.57H907.22V326.4h12.84c8.34,0,13.55-4.58,13.55-11.31C933.61,307.64,928.31,303.79,920.06,303.79Z"/></g></svg>